<svg width="50" height="50" viewBox="0 0 50 50" fill="none" xmlns="http://www.w3.org/2000/svg">
<circle cx="25" cy="25" r="25" fill="#27AE60" fill-opacity="0.3"/>
<path d="M25 10C16.7148 10 10 16.7148 10 25C10 33.2852 16.7148 40 25 40C33.2852 40 40 33.2852 40 25C40 16.7148 33.2852 10 25 10ZM25 14.6875C26.2943 14.6875 27.3438 15.7369 27.3438 17.0312C27.3438 18.3256 26.2949 19.375 25 19.375C23.7051 19.375 22.6562 18.3262 22.6562 17.0312C22.6562 15.7363 23.7051 14.6875 25 14.6875ZM31.9492 22.6035L28.4746 23.5938C28.2578 23.6582 28.0352 23.6875 27.8125 23.7344V27.3859L29.6078 32.5035C29.8651 33.2359 29.4796 34.0381 28.7471 34.2959C28.5918 34.3516 28.4336 34.375 28.2812 34.375C27.7008 34.375 27.1568 34.0124 26.9547 33.434L25.44 29.2943C25.2899 28.8841 24.71 28.8841 24.5594 29.2943L23.0447 33.434C22.8438 34.0117 22.2988 34.375 21.7188 34.375C21.564 34.375 21.4075 34.3493 21.2528 34.2963C20.5203 34.0381 20.1348 33.2363 20.392 32.5039L22.1875 27.3848V23.7344C21.9648 23.6875 21.7422 23.6582 21.5254 23.5938L18.0508 22.6035C17.3066 22.3867 16.873 21.6133 17.084 20.8633C17.2949 20.1133 18.0801 19.6797 18.8242 19.8965L22.2959 20.8891C24.0634 21.3943 25.9372 21.3943 27.7047 20.8891L31.1764 19.8965C31.9205 19.6749 32.701 20.1144 32.9148 20.8615C33.127 21.6133 32.6934 22.3867 31.9492 22.6035V22.6035Z" fill="#27AE60"/>
</svg>
