<svg width="50" height="50" viewBox="0 0 50 50" fill="none" xmlns="http://www.w3.org/2000/svg">
<circle cx="25" cy="25" r="25" fill="#364FEC" fill-opacity="0.22"/>
<path d="M31.7949 33.077H18.9743V17.6924H31.7949V18.9744H34.359V13.8462C34.359 12.436 33.2051 11.2821 31.7949 11.2821H18.9743C17.5641 11.2821 16.4102 12.436 16.4102 13.8462V36.9231C16.4102 38.3334 17.5641 39.4872 18.9743 39.4872H31.7949C33.2051 39.4872 34.359 38.3334 34.359 36.9231V31.7949H31.7949V33.077ZM36.1282 22.3334L36.9231 24.1026L37.7179 22.3334L39.4872 21.5385L37.7179 20.7436L36.9231 18.9744L36.1282 20.7436L34.359 21.5385L36.1282 22.3334Z" fill="#364FEC"/>
<path d="M30.5128 20.2565L28.9103 23.7821L25.3846 25.3847L28.9103 26.9872L30.5128 30.5129L32.1154 26.9872L35.641 25.3847L32.1154 23.7821L30.5128 20.2565ZM36.9231 26.6667L36.1282 28.436L34.359 29.2308L36.1282 30.0257L36.9231 31.7949L37.7179 30.0257L39.4872 29.2308L37.7179 28.436L36.9231 26.6667Z" fill="#364FEC"/>
</svg>
