<svg width="125" height="39" viewBox="0 0 125 39" fill="none" xmlns="http://www.w3.org/2000/svg">
<path d="M51.52 31L51.488 8.6H48.064L39.328 23.448L30.432 8.6H27.008V31H30.976V16.344L38.336 28.44H40.192L47.552 16.152L47.584 31H51.52ZM64.8665 31.224C70.1785 31.224 73.9865 27.576 73.9865 22.456C73.9865 17.336 70.1785 13.72 64.8665 13.72C59.6185 13.72 55.7785 17.336 55.7785 22.456C55.7785 27.576 59.6185 31.224 64.8665 31.224ZM64.8665 27.8C61.9865 27.8 59.8105 25.72 59.8105 22.456C59.8105 19.192 61.9865 17.112 64.8665 17.112C67.7785 17.112 69.9545 19.192 69.9545 22.456C69.9545 25.72 67.7785 27.8 64.8665 27.8ZM100.447 13.912L95.8068 26.584L91.1988 13.912H87.8388L83.1348 26.52L78.6228 13.912H74.8468L81.1188 31H84.9588L89.4388 19.224L93.8548 31H97.6948L103.999 13.912H100.447ZM113.96 31.224C119.272 31.224 123.08 27.576 123.08 22.456C123.08 17.336 119.272 13.72 113.96 13.72C108.712 13.72 104.872 17.336 104.872 22.456C104.872 27.576 108.712 31.224 113.96 31.224ZM113.96 27.8C111.08 27.8 108.904 25.72 108.904 22.456C108.904 19.192 111.08 17.112 113.96 17.112C116.872 17.112 119.048 19.192 119.048 22.456C119.048 25.72 116.872 27.8 113.96 27.8Z" fill="#454545"/>
<circle cx="11.5" cy="19.5" r="11" stroke="#FFB876"/>
<circle cx="10.4089" cy="18.409" r="9.32595" stroke="#FFB876"/>
<circle cx="9.46269" cy="17.8995" r="8.37975" stroke="#FFB876"/>
<circle cx="8.58958" cy="17.0249" r="7.06962" stroke="#FFB876"/>
</svg>
