<svg width="50" height="50" viewBox="0 0 50 50" fill="none" xmlns="http://www.w3.org/2000/svg">
<circle cx="25" cy="25" r="25" fill="#FFD7B2" fill-opacity="0.3"/>
<path d="M31.7948 25.3847C32.4748 25.3847 33.127 25.6549 33.6079 26.1357C34.0887 26.6166 34.3589 27.2688 34.3589 27.9488V35.6411C34.3589 36.3212 34.0887 36.9734 33.6079 37.4542C33.127 37.9351 32.4748 38.2052 31.7948 38.2052H18.9743C18.2942 38.2052 17.642 37.9351 17.1612 37.4542C16.6803 36.9734 16.4102 36.3212 16.4102 35.6411V27.9488C16.4102 27.2688 16.6803 26.6166 17.1612 26.1357C17.642 25.6549 18.2942 25.3847 18.9743 25.3847V18.9745C18.9743 17.2744 19.6496 15.6439 20.8518 14.4417C22.0539 13.2396 23.6844 12.5642 25.3845 12.5642C27.0846 12.5642 28.7151 13.2396 29.9173 14.4417C31.1194 15.6439 31.7948 17.2744 31.7948 18.9745V25.3847ZM25.3845 34.3591C26.0646 34.3591 26.7167 34.0889 27.1976 33.6081C27.6785 33.1272 27.9486 32.475 27.9486 31.795C27.9486 31.1149 27.6785 30.4627 27.1976 29.9819C26.7167 29.501 26.0646 29.2309 25.3845 29.2309C24.7045 29.2309 24.0523 29.501 23.5714 29.9819C23.0906 30.4627 22.8204 31.1149 22.8204 31.795C22.8204 32.475 23.0906 33.1272 23.5714 33.6081C24.0523 34.0889 24.7045 34.3591 25.3845 34.3591V34.3591ZM29.2307 25.3847V18.9745C29.2307 18.4694 29.1312 17.9692 28.9379 17.5026C28.7446 17.036 28.4613 16.612 28.1042 16.2548C27.747 15.8977 27.323 15.6144 26.8564 15.4211C26.3897 15.2278 25.8896 15.1283 25.3845 15.1283C24.8794 15.1283 24.3793 15.2278 23.9127 15.4211C23.446 15.6144 23.022 15.8977 22.6649 16.2548C22.3077 16.612 22.0244 17.036 21.8311 17.5026C21.6378 17.9692 21.5384 18.4694 21.5384 18.9745V25.3847H29.2307Z" fill="#FFB876"/>
</svg>
