<svg width="20" height="20" viewBox="0 0 20 20" fill="none" xmlns="http://www.w3.org/2000/svg">
<g clip-path="url(#clip0_2_215)">
<path d="M7.46137 18.2047C6.5965 18.2047 5.70631 18.1347 4.81077 17.9943C3.23348 17.7468 1.6368 16.9218 1.18499 16.6747L0 16.0268L1.28295 15.6049C2.68538 15.1438 3.5385 14.8577 4.59456 14.4097C3.53713 13.8976 2.72216 12.9765 2.32986 11.7857L2.03139 10.8796L2.27614 10.917C2.04406 10.6831 1.8608 10.4457 1.71874 10.2297C1.21353 9.46238 0.946041 8.52473 1.00296 7.72121L1.05911 6.93035L1.53259 7.11376C1.33285 6.73656 1.1885 6.33373 1.10366 5.91152C0.896908 4.88186 1.06994 3.78796 1.59103 2.83139L2.00347 2.07426L2.55507 2.73679C4.2996 4.83242 6.50922 6.07555 9.13174 6.43947C9.02462 5.7011 9.10488 4.98852 9.37054 4.34979C9.67983 3.60608 10.2301 2.97544 10.9613 2.52591C11.7733 2.0268 12.7581 1.78495 13.7342 1.84492C14.7698 1.90855 15.7101 2.29658 16.4568 2.96781C16.8215 2.87305 17.0902 2.77189 17.4534 2.63517C17.6719 2.55292 17.9197 2.45954 18.2298 2.35273L19.3723 1.95905L18.6272 4.08703C18.6764 4.08292 18.727 4.07941 18.78 4.07712L20.0001 4.02188L19.2789 5.00744C19.2376 5.0639 19.2271 5.07992 19.2124 5.10205C19.1543 5.18963 19.082 5.29858 18.0921 6.62029C17.8443 6.95125 17.7206 7.38231 17.7436 7.83427C17.8314 9.5518 17.6206 11.1057 17.1169 12.4528C16.6406 13.7272 15.9023 14.8206 14.923 15.7027C13.7112 16.794 12.1659 17.5413 10.33 17.9233C9.42944 18.1107 8.46234 18.2047 7.46137 18.2047Z" fill="#454545"/>
</g>
<defs>
<clipPath id="clip0_2_215">
<rect width="20" height="19.9999" fill="white"/>
</clipPath>
</defs>
</svg>
